<svg id="step" xmlns="http://www.w3.org/2000/svg" xmlns:xlink="http://www.w3.org/1999/xlink" viewBox="0 0 984.18 981.85"><defs><style>.cls-1{fill:#fff;stroke:#5b5b5b;stroke-miterlimit:10;}.cls-2{fill:#ed1b24;}.cls-3{font-size:497px;fill:#46aea3;font-family:Montserrat-Regular, Montserrat;}</style></defs><g id="livring"><path class="cls-1" d="M1021.93,19c-271.2-3.6-494,212.83-497.57,483.4s213.35,492.84,484.55,496.44,494-212.83,497.57-483.39S1293.13,22.6,1021.93,19Zm-6,794.9c-167.78-2.23-302-140-299.74-307.81s140-302,307.81-299.74,302,140,299.74,307.81S1183.72,816.11,1015.94,813.89Z" transform="translate(-523.82 -18.45)"/><path class="cls-2" d="M589.74,753.33s219.91,14.59,243.65-3.46c0,0,158.51,134.36,359.65,10,0,0,79.16,13.48,241.54,4.51,0,0-127.58,230.86-412,234.5-8.34.11-16.62,1.81-25,1.41C948.31,997.87,744.57,1006.3,589.74,753.33Z" transform="translate(-523.82 -18.45)"/><path class="cls-2" d="M844.42,262.15S609,275.55,595.88,254.06c0,0-75.66,103.92-70.94,230.22,0,0,143.13,26,192.12,2.55C717.06,486.83,720.53,352.73,844.42,262.15Z" transform="translate(-523.82 -18.45)"/><path class="cls-2" d="M1199.35,267s231.86,25.19,245.54,4.06c0,0,64.75,103.05,63.08,229.27,0,0-138,22.21-186.32-2.48C1321.65,497.87,1320.78,360.86,1199.35,267Z" transform="translate(-523.82 -18.45)"/><image width="1422" height="388" transform="translate(322.38 56.36) rotate(0.76) scale(0.25)" xlink:href="../../../Fase%202/inspiasjon_til_logo/trygfonden_logo.png"/></g><g id="tal"><text id="_1" data-name="1" class="cls-3" transform="translate(324.18 671.32)">1</text></g></svg>